<svg id="Capa_1" data-name="Capa 1" xmlns="http://www.w3.org/2000/svg" viewBox="0 0 536 112"><title>Adrivette</title><path d="M76.25,36.39,72.59,70.92h7.89Zm7,54.85L81.61,79h-10L70.14,91.24H61.59L71,24.81H81.61L91.86,91.24Z"/><path d="M132.19,37.52a14.58,14.58,0,0,0-.09-2c-.38-2.73-2.73-2.63-3.48-2.63h-5.08V83.05h5.83c2,0,2.82-.56,2.82-3.66Zm8.37,47.7c-1.41,6.4-7,6-8.93,6H114.8V24.82h16.08c.84,0,4.7-.29,7.33,2S141,32.34,141,35.54V79.76a23.59,23.59,0,0,1-.47,5.46"/><path d="M184.46,38.93a29.45,29.45,0,0,0-.19-3.86,3.07,3.07,0,0,0-.75-1.69,4.6,4.6,0,0,0-2.82-.57h-4.79V52.48h3.85c4,0,4.7-1.13,4.7-7.06Zm1.6,52.31-7.33-30.76h-2.92V91.24h-8.74V24.81h16.08c3.38,0,5.92.85,7.42,2.35,2,2,2.64,4.52,2.64,10.55v9.78c0,8.09-1.41,10.73-6.3,11.95L195,91.24Z"/><rect x="218.78" y="24.82" width="8.65" height="66.43"/><polygon points="270.86 91.24 260.52 91.24 250.37 24.82 259.11 24.82 265.88 78.07 272.37 24.82 281.01 24.82 270.86 91.24"/><polygon points="303.86 91.24 303.86 24.82 325.76 24.82 325.76 33.09 312.7 33.09 312.7 52.57 324.35 52.57 324.35 60.85 312.79 60.85 312.79 82.87 325.76 82.87 325.76 91.24 303.86 91.24"/><polygon points="366.19 32.62 366.19 91.24 357.26 91.24 357.26 32.62 347.2 32.62 347.2 24.82 376.53 24.82 376.53 32.62 366.19 32.62"/><polygon points="416.3 32.62 416.3 91.24 407.37 91.24 407.37 32.62 397.31 32.62 397.31 24.82 426.64 24.82 426.64 32.62 416.3 32.62"/><polygon points="450.33 91.24 450.33 24.82 472.24 24.82 472.24 33.09 459.17 33.09 459.17 52.57 470.83 52.57 470.83 60.85 459.26 60.85 459.26 82.87 472.24 82.87 472.24 91.24 450.33 91.24"/><path d="M33.35,59.86C29.49,62.59,30,69.27,30,73.41v9.78c0,11.58-3.85,16.94-16.17,16.94v-5a15.1,15.1,0,0,0,3.58-.66c5.17-2.07,5-8.18,5-12.89V74.35c0-5.18-.47-13.74,4.61-16.94a12.13,12.13,0,0,1,3.1-1.22v-.28A17.72,17.72,0,0,1,27,54.59c-5.17-3.29-4.61-11.67-4.61-16.94V30.41c0-4.14.19-10.26-4.14-12.42-1.31-.66-2.72-.66-4.13-1.13v-5c8,.66,13.63,1.7,15.41,10.82.85,4.42.47,11.1.47,15.53,0,4-.37,11.66,3.48,14.11a8.6,8.6,0,0,0,3.29,1.13v5.17a11.46,11.46,0,0,0-3.38,1.23"/><path d="M519.38,17.42c-6,1.79-5.73,7.91-5.73,13.08v7.15c0,7.44.94,15.62-7.71,18.26v.28a12.5,12.5,0,0,1,2.63,1c5.64,3.11,5.08,11.67,5.08,17.13v7.34c0,4.14-.19,10.35,4.23,12.51,1.32.66,2.73.47,4,.94v5c-8-.57-13.63-1.7-15.42-10.73C505.66,85,506,78.3,506,73.88c0-6,.75-13.83-6.77-15.25V53.46a9.78,9.78,0,0,0,3.3-1.13c3.94-2.73,3.47-9.5,3.47-13.74V28.9c0-7.06,1.13-13.55,8.75-16.09a28.56,28.56,0,0,1,7.43-.94v5c-1,.19-1.89.28-2.83.56"/></svg>