<?xml version="1.0" encoding="utf-8"?>
<!-- Generator: Adobe Illustrator 24.2.1, SVG Export Plug-In . SVG Version: 6.00 Build 0)  -->
<svg version="1.1" id="Capa_1" xmlns="http://www.w3.org/2000/svg" xmlns:xlink="http://www.w3.org/1999/xlink" x="0px" y="0px"
	 viewBox="0 0 32 32" style="enable-background:new 0 0 32 32;" xml:space="preserve">
<style type="text/css">
	.st0{fill:#ED64A6;}
</style>
<path class="st0" d="M15.8,14c0-1.6-1.2-1.9-2.5-1.9H9.6v7.8h3.8c1.4,0,2.8-0.7,2.8-2.3c0.1-0.9-0.5-1.8-1.4-2
	C15.4,15.4,15.9,14.7,15.8,14z M11.4,13.4H13c0.6,0,1.2,0.2,1.2,0.9s-0.4,0.9-1.1,0.9h-1.8v-1.8C11.3,13.4,11.4,13.4,11.4,13.4z
	 M13.2,18.6h-1.8v-2.2h1.9c0.8,0,1.2,0.3,1.2,1.1S13.9,18.5,13.2,18.6L13.2,18.6z"/>
<path class="st0" d="M16.7,17c-0.1,1.5,1,2.9,2.5,3c0.1,0,0.3,0,0.4,0c1.2,0.1,2.4-0.7,2.7-1.9h-1.4c-0.4,0.7-1.2,0.9-1.9,0.6
	c-0.5-0.2-0.8-0.7-0.7-1.3h4.1c0-0.1,0-0.2,0-0.3c0.2-1.5-0.9-2.9-2.5-3.1c-0.1,0-0.2,0-0.3,0c-1.6,0-2.9,1.2-2.9,2.8
	C16.7,16.9,16.7,16.9,16.7,17z M19.6,15.2c0.6,0,1.2,0.4,1.2,1.1v0.1h-2.5C18.3,15.7,18.8,15.2,19.6,15.2
	C19.5,15.2,19.5,15.2,19.6,15.2L19.6,15.2z"/>
<rect x="18" y="12.4" class="st0" width="3.2" height="0.8"/>
<path class="st0" d="M26.3,27.9H5.7c-0.9,0-1.6-0.7-1.6-1.6V5.7c0-0.9,0.7-1.6,1.6-1.6h1.8c0.3,0,0.6,0.3,0.6,0.6S7.9,5.3,7.6,5.3
	H5.7c-0.2,0-0.4,0.2-0.4,0.4v20.5c0,0.2,0.2,0.4,0.4,0.4h20.5c0.2,0,0.4-0.2,0.4-0.4V5.7c0-0.2-0.2-0.4-0.4-0.4H11.1
	c-0.3,0-0.6-0.3-0.6-0.6s0.3-0.6,0.6-0.6h15.1c0.9,0,1.6,0.7,1.6,1.6v20.5C27.9,27.2,27.2,27.9,26.3,27.9z"/>
</svg>
