<svg id="Capa_1" data-name="Capa 1" xmlns="http://www.w3.org/2000/svg" viewBox="0 0 32 32"><defs><style>.cls-1{fill:#e975a2;}</style></defs><path class="cls-1" d="M26.45,4H10.17a.62.62,0,0,0,0,1.24H26.45a.31.31,0,0,1,.31.31v20.9a.31.31,0,0,1-.31.31H5.55a.31.31,0,0,1-.31-.31V5.55a.31.31,0,0,1,.31-.31h1.8A.62.62,0,1,0,7.35,4H5.55A1.54,1.54,0,0,0,4,5.55v20.9A1.54,1.54,0,0,0,5.55,28h20.9A1.54,1.54,0,0,0,28,26.45V5.55A1.54,1.54,0,0,0,26.45,4Z"/><path class="cls-1" d="M15.83,14c0-1.56-1.16-1.94-2.51-1.94H9.62v7.83h3.81c1.42,0,2.76-.68,2.76-2.27a1.87,1.87,0,0,0-1.43-2A1.68,1.68,0,0,0,15.83,14Zm-4.48-.6H13c.62,0,1.18.17,1.18.89s-.44.93-1.05.93H11.35Zm1.84,5.16H11.35V16.35h1.88c.76,0,1.24.32,1.24,1.12S13.89,18.51,13.19,18.51Z"/><path class="cls-1" d="M16.7,17a2.77,2.77,0,0,0,2.91,3,2.53,2.53,0,0,0,2.66-1.91H20.89a1.39,1.39,0,0,1-2.62-.7h4.1c0-.09,0-.19,0-.29A2.79,2.79,0,0,0,19.61,14,2.86,2.86,0,0,0,16.7,17Zm2.86-1.82a1.17,1.17,0,0,1,1.25,1.21H18.27A1.21,1.21,0,0,1,19.56,15.19Z"/><rect class="cls-1" x="17.95" y="12.42" width="3.18" height="0.77"/></svg>