<svg id="Capa_1" data-name="Capa 1" xmlns="http://www.w3.org/2000/svg" viewBox="0 0 32 32"><defs><style>.cls-1{fill:#e975a2;}</style></defs><path class="cls-1" d="M26.45,4H10.17a.62.62,0,0,0,0,1.24H26.45a.31.31,0,0,1,.31.31v20.9a.31.31,0,0,1-.31.31H5.55a.31.31,0,0,1-.31-.31V5.55a.31.31,0,0,1,.31-.31H7.34A.62.62,0,1,0,7.34,4H5.55A1.54,1.54,0,0,0,4,5.55v20.9A1.54,1.54,0,0,0,5.55,28h20.9A1.54,1.54,0,0,0,28,26.45V5.55A1.54,1.54,0,0,0,26.45,4Z"/><path class="cls-1" d="M16,22a6.11,6.11,0,0,0,2.18-.41l0,0a5.87,5.87,0,0,0,3.65-6.69A5.83,5.83,0,0,0,16,10a6,6,0,0,0-3.36,10.91A5.87,5.87,0,0,0,16,22ZM13.11,19.8a7,7,0,0,1,3.52-2.94,12.05,12.05,0,0,1,.73,3.72A4.66,4.66,0,0,1,13.11,19.8Zm5.42.26a13.74,13.74,0,0,0-.71-3.45,6.33,6.33,0,0,1,2.85.42A4.84,4.84,0,0,1,18.53,20.06Zm2.25-4.26a7.66,7.66,0,0,0-2.4-.41,6.8,6.8,0,0,0-1,.08c-.12-.25-.23-.49-.35-.7a9.93,9.93,0,0,0,2.77-1.7A4.68,4.68,0,0,1,20.78,15.8Zm-1.85-3.58a9.31,9.31,0,0,1-2.54,1.5,13.11,13.11,0,0,0-1.85-2.28A4.75,4.75,0,0,1,18.93,12.22ZM13.39,12a12.57,12.57,0,0,1,1.82,2.13,15.51,15.51,0,0,1-3.81.59A4.78,4.78,0,0,1,13.39,12Zm-2.16,3.92a16.83,16.83,0,0,0,4.64-.73c.09.17.18.36.29.59A8.54,8.54,0,0,0,12.25,19,4.76,4.76,0,0,1,11.23,15.92Z"/></svg>