<?xml version="1.0" encoding="utf-8"?>
<!-- Generator: Adobe Illustrator 24.2.1, SVG Export Plug-In . SVG Version: 6.00 Build 0)  -->
<svg version="1.1" id="Capa_1" xmlns="http://www.w3.org/2000/svg" xmlns:xlink="http://www.w3.org/1999/xlink" x="0px" y="0px"
	 viewBox="0 0 32 32" style="enable-background:new 0 0 32 32;" xml:space="preserve">
<style type="text/css">
	.st0{fill:#ED64A6;}
</style>
<path class="st0" d="M14.6,14.4v6.4h2v-3.2c0-0.8,0.2-1.6,1.2-1.6s1,0.9,1,1.7v3.1h2v-3.5c0-1.7-0.4-3-2.4-3c-0.8,0-1.5,0.3-1.9,1
	l0,0v-0.9H14.6z"/>
<rect x="11.4" y="14.4" class="st0" width="2" height="6.4"/>
<path class="st0" d="M12.4,11.2c-0.6,0-1.2,0.5-1.2,1.2c0,0.6,0.5,1.1,1.2,1.1s1.2-0.5,1.2-1.1C13.5,11.7,13,11.2,12.4,11.2z"/>
<path class="st0" d="M26.3,27.9H5.7c-0.9,0-1.6-0.7-1.6-1.6V5.7c0-0.9,0.7-1.6,1.6-1.6h1.8c0.3,0,0.6,0.3,0.6,0.6S7.9,5.3,7.6,5.3
	H5.7c-0.2,0-0.4,0.2-0.4,0.4v20.5c0,0.2,0.2,0.4,0.4,0.4h20.5c0.2,0,0.4-0.2,0.4-0.4V5.7c0-0.2-0.2-0.4-0.4-0.4H11.1
	c-0.3,0-0.6-0.3-0.6-0.6s0.3-0.6,0.6-0.6h15.1c0.9,0,1.6,0.7,1.6,1.6v20.5C27.9,27.2,27.2,27.9,26.3,27.9z"/>
</svg>
