<svg id="Capa_1" data-name="Capa 1" xmlns="http://www.w3.org/2000/svg" viewBox="0 0 32 32"><defs><style>.cls-1{fill:#e975a2;}</style></defs><path class="cls-1" d="M26.45,4H10.17a.62.62,0,0,0,0,1.24H26.45a.31.31,0,0,1,.31.31v20.9a.31.31,0,0,1-.31.31H5.55a.31.31,0,0,1-.31-.31V5.55a.31.31,0,0,1,.31-.31H7.34A.62.62,0,1,0,7.34,4H5.55A1.54,1.54,0,0,0,4,5.55v20.9A1.54,1.54,0,0,0,5.55,28h20.9A1.54,1.54,0,0,0,28,26.45V5.55A1.54,1.54,0,0,0,26.45,4Z"/><path class="cls-1" d="M14.6,14.4v6.38h2V17.62c0-.83.16-1.64,1.19-1.64s1,.95,1,1.69v3.11h2V17.27c0-1.71-.37-3-2.37-3a2.07,2.07,0,0,0-1.88,1h0V14.4Z"/><rect class="cls-1" x="11.37" y="14.4" width="1.98" height="6.39"/><path class="cls-1" d="M12.36,11.22a1.15,1.15,0,0,0,0,2.3,1.15,1.15,0,1,0,0-2.3Z"/></svg>